<!--?xml version="1.0" encoding="utf-8"?-->
<!-- Generator: Adobe Illustrator 18.1.1, SVG Export Plug-In . SVG Version: 6.00 Build 0)  -->

<svg version="1.1" id="_x31_0" xmlns="http://www.w3.org/2000/svg" xmlns:xlink="http://www.w3.org/1999/xlink" x="0px" y="0px" viewBox="0 0 512 512" style="width: 256px; height: 256px; opacity: 1;" xml:space="preserve">
<style type="text/css">
	.st0{fill:#374149;}
</style>
<g>
	<path class="st0" d="M411.678,63.278L195.44,164c-24.879,10.797-62.641,21.84-81.199-8.242
		c-9.442-15.359,5.359-33.039,16.558-37.519l32.641-14.321l178.398-77.281C341.838,12.558,329.119,0,314.959,0
		c-3.199,0-6.48,0.637-9.679,2L101.998,87.519C78.959,97.598,64.4,118.317,64.4,141.039v335.598
		c0,18.242,28.32,33.203,64.637,35.121c0.32,0.082,0.562,0.082,0.882,0.082c2.321,0.078,4.641,0.16,7.039,0.16
		c1.122,0,2.16,0,3.282-0.082c1.718,0.008,3.504-0.094,5.312-0.238c20.543-1.168,38.41-6.524,50.012-14.27
		c0.141-0.062,0.278-0.126,0.278-0.126l204.637-81.847c28.801-14,47.121-43.282,47.121-75.359V82.637
		C447.6,66.317,428.08,55.84,411.678,63.278z M171.517,255.855v31.825l-1.359,0.238c-10.078,1.762-23.359,1.442-37.281-0.878
		c-17.598-2.883-34.078-8.801-42.958-15.442l-4.722-3.519V238c9.602,7.199,26.641,13.68,46.32,16.957
		c14.864,2.481,28.462,2.664,38.899,1.012C170.772,255.922,171.166,255.902,171.517,255.855z M85.197,287.598
		c11.199,6.801,27.199,12.242,45.043,15.199c8.797,1.52,17.519,2.242,25.519,2.242c5.402,0,10.41-0.387,15.02-1.114
		c0.238-0.027,0.5-0.042,0.738-0.07v75.344c-10.398,4.558-29.359,5.598-50.48,2.078c-13.84-2.321-26.32-6.161-35.84-10.719V287.598z
		" style="fill: rgb(75, 75, 75);"></path>
</g>
</svg>
